<svg width="32" height="32" viewBox="0 0 32 32" fill="none" xmlns="http://www.w3.org/2000/svg">
<path d="M16 2.41024C12.8665 2.41024 10.3175 5.06112 10.3175 8.32C10.3175 11.5789 12.8677 14.231 16 14.231C19.1323 14.231 21.6825 11.5802 21.6825 8.32C21.6825 5.06112 19.1323 2.41024 16 2.41024ZM16 16.64C11.5889 16.64 8 12.9075 8 8.32C8 3.73248 11.5889 0 16 0C20.4111 0 24 3.73248 24 8.32C24 12.9075 20.4111 16.64 16 16.64Z" fill="black"/>
<path d="M32 31.8013H29.5385V29.9722C29.536 29.6266 29.3945 21.4384 20.9231 21.4384H11.0769C2.69292 21.4384 2.46769 29.6419 2.46154 29.9901V31.8H0V29.9709C0.0603077 26.1642 2.45169 19 11.0769 19H20.9231C29.6849 19 32 26.177 32 29.9709V31.8V31.8013Z" fill="black"/>
</svg>
